<svg width="400" height="300" viewBox="0 0 400 300" fill="none" xmlns="http://www.w3.org/2000/svg">
  <!-- Black background -->
  <rect width="400" height="300" fill="#000000"/>
  
  <!-- Main mountain peak (center) -->
  <path d="M200 80 Q220 100 240 120 Q250 130 270 140 Q280 150 300 160 Q320 170 350 180 Q370 185 400 190 L400 300 L0 300 L0 190 Q30 185 50 180 Q80 170 100 160 Q120 150 130 140 Q150 130 160 120 Q180 100 200 80 Z" fill="white"/>
  
  <!-- Left mountain peaks -->
  <path d="M50 120 Q70 100 90 110 Q110 90 130 100 Q150 110 170 120" fill="white"/>
  
  <!-- Right mountain peaks -->
  <path d="M230 120 Q250 100 270 110 Q290 90 310 100 Q330 110 350 120" fill="white"/>
  
  <!-- Mountain ridge details and texture -->
  <path d="M120 140 Q130 130 140 135" stroke="black" stroke-width="3" fill="none"/>
  <path d="M160 135 Q170 125 180 130" stroke="black" stroke-width="3" fill="none"/>
  <path d="M200 125 Q210 115 220 120" stroke="black" stroke-width="3" fill="none"/>
  <path d="M240 130 Q250 120 260 125" stroke="black" stroke-width="3" fill="none"/>
  <path d="M280 135 Q290 125 300 130" stroke="black" stroke-width="3" fill="none"/>
  
  <!-- Detailed ridge lines -->
  <path d="M140 150 L145 145 L150 150 L155 145 L160 150" stroke="black" stroke-width="2" fill="none"/>
  <path d="M240 150 L245 145 L250 150 L255 145 L260 150" stroke="black" stroke-width="2" fill="none"/>
  
  <!-- Yellow infinity symbol with proper curves and thickness -->
  <path d="M80 220 Q140 180 200 220 Q260 260 320 220 Q260 180 200 220 Q140 260 80 220 Z" 
        fill="none" 
        stroke="#ffc107" 
        stroke-width="16" 
        stroke-linecap="round"
        stroke-linejoin="round"/>
  
  <!-- Inner shadow/depth for infinity symbol -->
  <path d="M90 220 Q130 195 180 220 Q230 245 270 220 Q230 195 180 220 Q130 245 90 220 Z" 
        fill="none" 
        stroke="#ffb300" 
        stroke-width="6" 
        stroke-linecap="round"
        opacity="0.7"/>
</svg>
