<svg width="300" height="200" viewBox="0 0 300 200" fill="none" xmlns="http://www.w3.org/2000/svg">
  <!-- Background -->
  <rect width="300" height="200" fill="#7c2d12"/>
  
  <!-- Multi-sport Court -->
  <rect x="50" y="40" width="200" height="120" fill="#374151" stroke="#ffffff" stroke-width="2"/>
  
  <!-- Basketball section -->
  <circle cx="100" cy="80" r="15" fill="none" stroke="#f97316" stroke-width="2"/>
  <circle cx="100" cy="80" r="5" fill="none" stroke="#f97316" stroke-width="1"/>
  
  <!-- Tennis section -->
  <rect x="180" y="60" width="60" height="40" fill="none" stroke="#22c55e" stroke-width="2"/>
  <line x1="210" y1="60" x2="210" y2="100" stroke="#22c55e" stroke-width="1"/>
  
  <!-- Volleyball section -->
  <line x1="150" y1="120" x2="150" y2="140" stroke="#fde047" stroke-width="2"/>
  <rect x="130" y="120" width="40" height="40" fill="none" stroke="#fde047" stroke-width="1"/>
  
  <!-- Center dividing lines -->
  <line x1="150" y1="40" x2="150" y2="160" stroke="#ffffff" stroke-width="1" stroke-dasharray="5,5"/>
  <line x1="50" y1="100" x2="250" y2="100" stroke="#ffffff" stroke-width="1" stroke-dasharray="5,5"/>
  
  <!-- Equipment -->
  <!-- Basketball -->
  <circle cx="80" cy="60" r="6" fill="#d97706"/>
  <path d="M 74 60 L 86 60" stroke="#000000" stroke-width="0.5"/>
  
  <!-- Tennis ball -->
  <circle cx="220" cy="120" r="4" fill="#fbbf24"/>
  <path d="M 216 120 Q 220 118 224 120" stroke="#ffffff" stroke-width="0.5" fill="none"/>
  
  <!-- Soccer ball -->
  <circle cx="120" cy="140" r="5" fill="#ffffff"/>
  <path d="M 115 140 Q 120 135 125 140 Q 120 145 115 140" stroke="#000000" stroke-width="0.5" fill="none"/>
  
  <!-- Text -->
  <text x="150" y="185" text-anchor="middle" fill="#ffffff" font-family="Arial, sans-serif" font-size="14" font-weight="bold">Multi-Sport Court</text>
</svg>