<svg width="300" height="200" viewBox="0 0 300 200" fill="none" xmlns="http://www.w3.org/2000/svg">
  <!-- Background -->
  <rect width="300" height="200" fill="#059669"/>
  
  <!-- Pickleball Court -->
  <rect x="60" y="50" width="180" height="100" fill="#3b82f6" stroke="#ffffff" stroke-width="2"/>
  
  <!-- Center line -->
  <line x1="150" y1="50" x2="150" y2="150" stroke="#ffffff" stroke-width="2"/>
  
  <!-- Non-volley zones (kitchen) -->
  <rect x="60" y="85" width="90" height="30" fill="none" stroke="#ffffff" stroke-width="1"/>
  <rect x="150" y="85" width="90" height="30" fill="none" stroke="#ffffff" stroke-width="1"/>
  
  <!-- Service areas -->
  <line x1="105" y1="50" x2="105" y2="85" stroke="#ffffff" stroke-width="1"/>
  <line x1="105" y1="115" x2="105" y2="150" stroke="#ffffff" stroke-width="1"/>
  <line x1="195" y1="50" x2="195" y2="85" stroke="#ffffff" stroke-width="1"/>
  <line x1="195" y1="115" x2="195" y2="150" stroke="#ffffff" stroke-width="1"/>
  
  <!-- Net -->
  <line x1="150" y1="40" x2="150" y2="50" stroke="#ffffff" stroke-width="3"/>
  <rect x="148" y="40" width="4" height="10" fill="#f3f4f6"/>
  
  <!-- Pickleball -->
  <circle cx="130" cy="70" r="6" fill="#fbbf24"/>
  <g stroke="#000000" stroke-width="0.5" fill="none">
    <circle cx="127" cy="67" r="1"/>
    <circle cx="133" cy="67" r="1"/>
    <circle cx="130" cy="73" r="1"/>
    <circle cx="127" cy="70" r="1"/>
    <circle cx="133" cy="70" r="1"/>
  </g>
  
  <!-- Pickleball paddle -->
  <rect x="175" y="120" width="8" height="15" rx="4" fill="#8b5cf6"/>
  <rect x="177" y="135" width="4" height="8" fill="#a16207"/>
  
  <!-- Text -->
  <text x="150" y="185" text-anchor="middle" fill="#ffffff" font-family="Arial, sans-serif" font-size="14" font-weight="bold">Pickleball Court</text>
</svg>